<svg xmlns:xlink="http://www.w3.org/1999/xlink" width="1.808ex" height="2.176ex" style="font-size: 15px; vertical-align: -0.338ex;" viewBox="0 -791.3 778.5 936.9" role="img" focusable="false" xmlns="http://www.w3.org/2000/svg">
<defs>
<path stroke-width="1" id="E1-MJAMS-47" d="M737 285Q749 277 749 268Q749 260 744 255T730 250Q695 250 677 217Q666 195 666 119Q666 52 664 50Q656 36 555 3Q483 -16 415 -19Q364 -19 348 -17Q226 -3 146 70T44 261Q39 283 39 341T44 421Q66 538 143 611T341 699Q344 699 364 700T395 701Q449 698 503 677T585 655Q603 655 611 662T620 678T625 694T639 702Q650 702 657 690V481L653 474Q640 467 628 472Q624 476 618 496T595 541Q562 587 507 625T390 663H381Q337 663 299 625Q213 547 213 337Q213 75 341 23Q357 19 397 19Q440 19 462 22T492 30T513 45V119Q513 184 506 203Q491 237 435 250Q421 250 415 257Q404 267 415 281L421 285H737ZM250 43Q250 45 243 55T225 87T203 139T185 224T177 343V361Q184 533 250 625Q264 643 261 643Q238 635 214 620T161 579T110 510T79 414Q74 384 74 341T79 268Q106 117 230 52L250 43ZM621 565V625Q617 623 613 623Q603 619 590 619H575L588 605Q608 583 610 579L621 565ZM655 250H517L524 241Q548 213 548 149V114V39Q549 39 562 44T592 55T615 63L630 70V134Q632 190 634 204T648 237Q655 245 655 250Z"></path>
</defs>
<g stroke="currentColor" fill="currentColor" stroke-width="0" transform="matrix(1 0 0 -1 0 0)">
 <use xlink:href="#E1-MJAMS-47" x="0" y="0"></use>
</g>
</svg>